<svg xmlns="http://www.w3.org/2000/svg" width="100" height="22" viewBox="0 0 100 22"><defs><style>.a{fill:#3041a7;}</style></defs><g transform="translate(-0.9 -10.3)"><path class="a" d="M19.5,12.761a4.5,4.5,0,0,1,1.8,3.81,5.072,5.072,0,0,1-.1,1.27,7.366,7.366,0,0,1-2.1,3.81,9.274,9.274,0,0,1-4.4,2.177L18.5,31.9h-6L9.1,24.19H7.9L6.4,31.9H.9l4-20.5h9.3A8.568,8.568,0,0,1,19.5,12.761Zm-3.8,4.808c0-1.361-.9-2-2.7-2H9.6l-1.1,5.17h3.4c2.1,0,3.4-.816,3.7-2.54A4.672,4.672,0,0,1,15.7,17.568Z"/><path class="a" d="M36.9,16.8a7.02,7.02,0,0,1,2.8,2.6,7.436,7.436,0,0,1,1,4,18.32,18.32,0,0,1-.2,2.1,10.112,10.112,0,0,1-5.8,7.6,11.255,11.255,0,0,1-4.8,1.1,9.279,9.279,0,0,1-4.2-.9,6.425,6.425,0,0,1-2.8-2.6,8.456,8.456,0,0,1-1-4,14.919,14.919,0,0,1,.2-2.1A10.112,10.112,0,0,1,27.9,17a11.621,11.621,0,0,1,4.9-1A7.946,7.946,0,0,1,36.9,16.8Zm-7.7,5a5.169,5.169,0,0,0-1.6,3.3,6.245,6.245,0,0,0-.1,1.2,3.649,3.649,0,0,0,.8,2.4,2.732,2.732,0,0,0,2.2.8,4.3,4.3,0,0,0,2.8-1.1,5.169,5.169,0,0,0,1.6-3.3,4.869,4.869,0,0,0,.1-1.2,3.649,3.649,0,0,0-.8-2.4,2.865,2.865,0,0,0-2.2-.8A4,4,0,0,0,29.2,21.8Z" transform="translate(-1.309 -2.1)"/><path class="a" d="M41.4,31.935,45.6,10.3H51l-1.6,8.307A6.054,6.054,0,0,1,52,16.325a8.087,8.087,0,0,1,3.7-.822,6.5,6.5,0,0,1,4.6,1.643A6.3,6.3,0,0,1,62,21.8a16.309,16.309,0,0,1-.2,2.1,10.9,10.9,0,0,1-1.9,4.473A9.714,9.714,0,0,1,56.6,31.3a8.238,8.238,0,0,1-4.1,1,6.362,6.362,0,0,1-3.4-.822A3.99,3.99,0,0,1,47.4,29.2l-.6,2.739Zm13.2-5.2a4.376,4.376,0,0,0,1.6-2.921,3.43,3.43,0,0,0,.1-1,2.7,2.7,0,0,0-.9-2.191,3.422,3.422,0,0,0-2.4-.822,4.281,4.281,0,0,0-3,1.1,4.938,4.938,0,0,0-1.7,2.921,2.846,2.846,0,0,0-.1.913,2.7,2.7,0,0,0,.9,2.191,3.422,3.422,0,0,0,2.4.822A5.183,5.183,0,0,0,54.6,26.732Z" transform="translate(-2.579 0)"/><path class="a" d="M78.5,16.8a7.02,7.02,0,0,1,2.8,2.6,7.436,7.436,0,0,1,1,4,18.321,18.321,0,0,1-.2,2.1,10.112,10.112,0,0,1-5.8,7.6,11.255,11.255,0,0,1-4.8,1.1,9.279,9.279,0,0,1-4.2-.9,6.425,6.425,0,0,1-2.8-2.6,8.456,8.456,0,0,1-1-4,14.919,14.919,0,0,1,.2-2.1A10.112,10.112,0,0,1,69.5,17a11.621,11.621,0,0,1,4.9-1A7.946,7.946,0,0,1,78.5,16.8Zm-7.7,5a5.169,5.169,0,0,0-1.6,3.3,7.384,7.384,0,0,0-.2,1.2,3.649,3.649,0,0,0,.8,2.4,2.732,2.732,0,0,0,2.2.8,4.3,4.3,0,0,0,2.8-1.1,5.169,5.169,0,0,0,1.6-3.3,4.869,4.869,0,0,0,.1-1.2,3.649,3.649,0,0,0-.8-2.4,2.732,2.732,0,0,0-2.2-.8A3.775,3.775,0,0,0,70.8,21.8Z" transform="translate(-3.903 -2.1)"/><path class="a" d="M97.2,21.65l5.7,10.25H96.4l-3.6-6.35L87.5,31.9H81.2l9.3-10.522L85,11.4h6.5l3.4,6.168,5.2-6.168h6.2Z" transform="translate(-5.4)"/></g></svg>