<svg xmlns="http://www.w3.org/2000/svg" width="59.503" height="13.091" viewBox="0 0 59.503 13.091"><defs><style>.a{fill:#3041a7;}</style></defs><g transform="translate(-0.9 -10.3)"><path class="a" d="M11.968,12.21a2.678,2.678,0,0,1,1.071,2.267,3.018,3.018,0,0,1-.06.756A4.383,4.383,0,0,1,11.73,17.5a5.518,5.518,0,0,1-2.618,1.3l2.261,4.8H7.8L5.779,19.01H5.065L4.173,23.6H.9L3.28,11.4H8.814A5.1,5.1,0,0,1,11.968,12.21ZM9.706,15.07c0-.81-.536-1.187-1.607-1.187H6.077l-.655,3.077H7.445c1.25,0,2.023-.486,2.2-1.511A2.78,2.78,0,0,1,9.706,15.07Z" transform="translate(0 -0.445)"/><path class="a" d="M30.825,16.468a4.177,4.177,0,0,1,1.666,1.547,4.425,4.425,0,0,1,.6,2.38,10.9,10.9,0,0,1-.119,1.25,6.017,6.017,0,0,1-3.451,4.522,6.7,6.7,0,0,1-2.856.655,5.521,5.521,0,0,1-2.5-.536A3.823,3.823,0,0,1,22.5,24.739a5.032,5.032,0,0,1-.6-2.38,8.877,8.877,0,0,1,.119-1.25,6.017,6.017,0,0,1,3.451-4.522,6.915,6.915,0,0,1,2.916-.6A4.728,4.728,0,0,1,30.825,16.468Zm-4.582,2.975a3.076,3.076,0,0,0-.952,1.964,3.716,3.716,0,0,0-.06.714,2.171,2.171,0,0,0,.476,1.428,1.625,1.625,0,0,0,1.309.476,2.557,2.557,0,0,0,1.666-.655,3.076,3.076,0,0,0,.952-1.964,2.9,2.9,0,0,0,.06-.714,2.171,2.171,0,0,0-.476-1.428,1.7,1.7,0,0,0-1.309-.476A2.38,2.38,0,0,0,26.244,19.444Z" transform="translate(-9.284 -3.55)"/><path class="a" d="M41.4,23.173,43.9,10.3h3.213l-.952,4.943a3.6,3.6,0,0,1,1.547-1.358,4.812,4.812,0,0,1,2.2-.489,3.869,3.869,0,0,1,2.737.978,3.751,3.751,0,0,1,1.012,2.77,9.7,9.7,0,0,1-.119,1.249,6.487,6.487,0,0,1-1.131,2.662,5.78,5.78,0,0,1-1.964,1.738,4.9,4.9,0,0,1-2.44.6,3.786,3.786,0,0,1-2.023-.489,2.374,2.374,0,0,1-1.012-1.358l-.357,1.63Zm7.854-3.1a2.6,2.6,0,0,0,.952-1.738,2.041,2.041,0,0,0,.06-.6,1.6,1.6,0,0,0-.536-1.3,2.036,2.036,0,0,0-1.428-.489,2.548,2.548,0,0,0-1.785.652,2.938,2.938,0,0,0-1.012,1.738,1.693,1.693,0,0,0-.06.543,1.6,1.6,0,0,0,.536,1.3,2.036,2.036,0,0,0,1.428.489A3.084,3.084,0,0,0,49.254,20.077Z" transform="translate(-17.936 0)"/><path class="a" d="M72.425,16.468a4.177,4.177,0,0,1,1.666,1.547,4.424,4.424,0,0,1,.6,2.38,10.9,10.9,0,0,1-.119,1.25,6.017,6.017,0,0,1-3.451,4.522,6.7,6.7,0,0,1-2.856.655,5.521,5.521,0,0,1-2.5-.536A3.823,3.823,0,0,1,64.1,24.739a5.032,5.032,0,0,1-.6-2.38,8.879,8.879,0,0,1,.119-1.25,6.017,6.017,0,0,1,3.451-4.522,6.915,6.915,0,0,1,2.916-.6A4.728,4.728,0,0,1,72.425,16.468Zm-4.582,2.975a3.076,3.076,0,0,0-.952,1.964,4.395,4.395,0,0,0-.119.714,2.171,2.171,0,0,0,.476,1.428,1.625,1.625,0,0,0,1.309.476,2.557,2.557,0,0,0,1.666-.655,3.076,3.076,0,0,0,.952-1.964,2.9,2.9,0,0,0,.06-.714,2.171,2.171,0,0,0-.476-1.428,1.625,1.625,0,0,0-1.309-.476A2.246,2.246,0,0,0,67.844,19.444Z" transform="translate(-27.674 -3.55)"/><path class="a" d="M90.72,17.5l3.392,6.1H90.244L88.1,19.82,84.949,23.6H81.2l5.534-6.261L83.461,11.4h3.868l2.023,3.67,3.094-3.67h3.689Z" transform="translate(-35.732 -0.445)"/></g></svg>