<svg xmlns="http://www.w3.org/2000/svg" width="30.035" height="15.105" viewBox="0 0 30.035 15.105"><defs><style>.a{fill:#f68026;}.b{fill:#00447b;}.c{fill:#004079;}.d{fill:#fff;}</style></defs><g transform="translate(0 0)"><g transform="translate(0 0)"><path class="a" d="M32.016,2.223c.611-.277,1.192-.585,1.774-.863-.756,3.358-3.373,5.823-6.193,7.363.756-.893,1.715-1.571,2.413-2.526A12.024,12.024,0,0,0,32.016,2.223Z" transform="translate(-3.754 -0.178)"/><path class="b" d="M1.8.067h1.89c.145,1.171.291,2.311.465,3.45.465-1.14.93-2.311,1.425-3.45H7.531c-.145,2-.233,4-.262,6.038H5.815c.116-1.356.233-2.68.233-4.036C5.379,3.363,4.943,4.78,4.39,6.105c-.378,0-.756,0-1.134-.031-.116-1.356-.32-2.742-.465-4.128C2.442,3.3,2.239,4.719,1.919,6.074c-.465.031-.93.031-1.4.031C.959,4.1,1.4,2.1,1.8.067ZM8.723.1C9.246.067,9.769.067,10.293.067c-.262,2-.552,4-.785,6.038H7.938C8.2,4.1,8.49,2.1,8.723.1Zm2.5-.031a9.1,9.1,0,0,1,3.286.277c1.192.832.7,3.142-.756,3.266.378.8.756,1.664,1.134,2.5H13.375C13,5.15,12.648,4.164,12.212,3.271c-.174.924-.262,1.879-.378,2.8-.465.031-.96.031-1.425.031C10.671,4.1,10.961,2.1,11.223.067Zm6.309,0h1.89c.32,2.033.611,4.036.959,6.038H18.9c-.029-.431-.087-.832-.116-1.263-.611,0-1.221.031-1.832.062l-.436,1.2H15C15.875,4.1,16.689,2.069,17.532.067Zm3.983,0c1.163.031,2.355.031,3.547,0-.029.431-.087.863-.116,1.294-.727,0-1.454-.031-2.181-.031-.058.37-.087.77-.116,1.14.64,0,1.279,0,1.919-.031-.029.431-.087.863-.116,1.263-.669,0-1.337-.031-2.006-.031-.058.4-.087.77-.145,1.14h2.181c-.029.431-.087.863-.145,1.263-1.221.031-2.442,0-3.664.031C20.963,4.1,21.225,2.069,21.516.067ZM2.53,8.939c.64,0,1.25,0,1.89.031.116.77.233,1.54.349,2.341-.552-.154-1.1-.308-1.657-.431-.407.4-.814.8-1.221,1.232a45.918,45.918,0,0,0,7.967.216A2.32,2.32,0,0,1,8,15.132a3.23,3.23,0,0,1-2.588-.986c.233-.4.465-.832.7-1.232.582.647,2.006,1.386,2.268.031-1.134-.062-2.239-.062-3.344-.123.087.739.2,1.448.349,2.157H3.9c-.058-.524-.145-1.017-.233-1.54H2.123c-.2.524-.407,1.017-.611,1.54H0C.843,12.975,1.686,10.942,2.53,8.939Z" transform="translate(0 -0.055)"/><path class="b" d="M7.709,10.017a2.767,2.767,0,0,1,3.227.062c-.174.37-.349.77-.494,1.14C9.89,11,8.931,10.294,8.7,11.28c.174.616.9.8,1.338,1.14-.96-.031-1.948-.092-2.908-.123A2.4,2.4,0,0,1,7.709,10.017Zm4.643-.2a2.9,2.9,0,0,1,2.907.246c-.145.4-.32.832-.494,1.232-.523-.216-1.047-.832-1.6-.339-.349.739.494.986.9,1.325-.814.062-1.657.092-2.471.154A2.133,2.133,0,0,1,12.353,9.816Zm4.019.012h3.605L19.8,11.122h-2.21c0,.216-.058.585-.058.8-.494.092-.989.185-1.454.277C16.2,11.4,16.284,10.629,16.371,9.828Z" transform="translate(-0.961 -0.944)"/><path class="c" d="M22.415,9.86a30.3,30.3,0,0,1,3.344.092c-1.163.524-2.355.955-3.547,1.356C22.27,10.815,22.357,10.353,22.415,9.86Z" transform="translate(-3.022 -0.976)"/><path class="b" d="M13.652,13.033A32.916,32.916,0,0,0,25.05,9.86c-.087.462-.174.924-.262,1.417H23.654c-.2,1.51-.378,3.019-.611,4.529h-1.57c.233-1.417.378-2.834.582-4.251-.64.246-1.279.493-1.948.709-.058.37-.145.77-.233,1.14a14.538,14.538,0,0,0-2.006.031l-.087,1.109c.727-.031,1.454-.031,2.181-.031-.029.308-.116.955-.145,1.294-1.221-.031-2.442-.031-3.634,0,.087-.893.233-1.787.349-2.68a4.5,4.5,0,0,0-.64.062c-.058.739,0,1.664-.64,2.187-1.1,1.047-2.82.585-3.809-.4.233-.4.494-.8.727-1.2.494.37,1.018.893,1.686.77.494-.062.611-.924.087-1.047a13.25,13.25,0,0,0-1.89.123c.058-.154.116-.462.175-.616A4.406,4.406,0,0,0,13.652,13.033Z" transform="translate(-1.557 -0.976)"/><path class="d" d="M14.168,2.956c.087-.555.174-1.109.233-1.664.407.092,1.192-.031,1.163.647C15.709,2.8,14.75,2.956,14.168,2.956Zm5.175.832c.291-.77.581-1.54.9-2.28.116.77.2,1.51.291,2.249C20.129,3.787,19.751,3.787,19.344,3.787Z" transform="translate(-1.928 -0.171)"/></g></g></svg>