<svg xmlns="http://www.w3.org/2000/svg" width="24" height="24.253" viewBox="0 0 24 24.253"><defs><style>.a{fill:none;}.b{fill:#98a2b0;}.c{fill:#49d587;}.d,.e{stroke:none;}.e{fill:#fff;}</style></defs><g transform="translate(-1096.768 -26.515)"><rect class="a" width="24" height="24" transform="translate(1096.768 26.768)"/><g transform="translate(1098.471 27)"><path class="b" d="M7.875,18.375h5.249a2.625,2.625,0,0,1-5.249,0ZM1.312,17.063a1.312,1.312,0,0,1,0-2.625h.657A5.714,5.714,0,0,0,3.937,10.5V6.563A6.5,6.5,0,0,1,10.5,0a6.5,6.5,0,0,1,6.562,6.563V10.5a5.711,5.711,0,0,0,1.969,3.938h.657a1.312,1.312,0,0,1,0,2.625Z" transform="translate(0.297 2.768)"/><g class="c" transform="translate(12.209 1.515)"><path class="d" d="M 3.633697509765625 8.267397880554199 C 1.078667521476746 8.267397880554199 -1.000002503395081 6.188727378845215 -1.000002503395081 3.633697509765625 C -1.000002503395081 1.078667521476746 1.078667521476746 -1.000002503395081 3.633697509765625 -1.000002503395081 C 6.188727378845215 -1.000002503395081 8.267397880554199 1.078667521476746 8.267397880554199 3.633697509765625 C 8.267397880554199 6.188727378845215 6.188727378845215 8.267397880554199 3.633697509765625 8.267397880554199 Z"/><path class="e" d="M 3.633697509765625 -2.384185791015625e-06 C 1.626857280731201 -2.384185791015625e-06 -2.384185791015625e-06 1.626857280731201 -2.384185791015625e-06 3.633697509765625 C -2.384185791015625e-06 5.640537261962891 1.626857280731201 7.267397403717041 3.633697509765625 7.267397403717041 C 5.640537261962891 7.267397403717041 7.267397403717041 5.640537261962891 7.267397403717041 3.633697509765625 C 7.267397403717041 1.626857280731201 5.640537261962891 -2.384185791015625e-06 3.633697509765625 -2.384185791015625e-06 M 3.633697509765625 -2.000002861022949 C 6.740127563476563 -2.000002861022949 9.267396926879883 0.5272674560546875 9.267396926879883 3.633697509765625 C 9.267396926879883 6.740127563476563 6.740127563476563 9.267396926879883 3.633697509765625 9.267396926879883 C 0.5272674560546875 9.267396926879883 -2.000002861022949 6.740127563476563 -2.000002861022949 3.633697509765625 C -2.000002861022949 0.5272674560546875 0.5272674560546875 -2.000002861022949 3.633697509765625 -2.000002861022949 Z"/></g></g></g></svg>